<?xml version="1.0" encoding="iso-8859-1"?>
<!-- Generator: Adobe Illustrator 23.0.1, SVG Export Plug-In . SVG Version: 6.00 Build 0)  -->
<svg version="1.1" id="Ebene_1" xmlns="http://www.w3.org/2000/svg" xmlns:xlink="http://www.w3.org/1999/xlink" x="0px" y="0px"
	 viewBox="0 0 651.489 96.723" style="enable-background:new 0 0 651.489 96.723;" xml:space="preserve">
<g>
	<g>
		<path style="fill:#010202;" d="M263.144,82.216V66.304h2.158v1.777c0.615-1.138,1.966-2.039,3.817-2.039
			c3.412,0,5.239,2.633,5.239,5.953c0,3.391-1.967,6.023-5.309,6.023c-1.756,0-3.086-0.83-3.704-1.85v6.048H263.144 M268.712,68.011
			c-2.037,0-3.386,1.707-3.386,3.984c0,2.347,1.349,4.03,3.386,4.03c2.068,0,3.366-1.683,3.366-4.03
			C272.078,69.718,270.8,68.011,268.712,68.011"/>
		<path style="fill:#010202;" d="M287.712,71.995c0,3.485-2.42,6.072-5.837,6.072c-3.412,0-5.829-2.587-5.829-6.072
			c0-3.463,2.417-6.047,5.829-6.047C285.292,65.948,287.712,68.532,287.712,71.995 M285.433,71.995c0-2.633-1.661-4.054-3.558-4.054
			c-1.896,0-3.558,1.421-3.558,4.054c0,2.657,1.662,4.079,3.558,4.079C283.772,76.074,285.433,74.652,285.433,71.995"/>
		<polygon style="fill:#010202;" points="299.066,66.303 302.033,74.886 304.547,66.303 306.896,66.303 303.198,77.71 
			300.894,77.71 297.857,69.03 294.898,77.71 292.549,77.71 288.799,66.303 291.243,66.303 293.803,74.886 296.77,66.303 		"/>
		<path style="fill:#010202;" d="M318.848,74.46c-0.641,2.015-2.468,3.606-5.122,3.606c-3.061,0-5.742-2.23-5.742-6.096
			c0-3.579,2.584-6.023,5.456-6.023c3.512,0,5.479,2.42,5.479,5.975c0,0.286-0.025,0.572-0.051,0.712h-8.579
			c0.044,2.039,1.514,3.463,3.437,3.463c1.853,0,2.776-1.019,3.202-2.3L318.848,74.46 M316.596,70.832
			c-0.051-1.637-1.114-2.916-3.132-2.916c-1.872,0-3.01,1.446-3.105,2.916H316.596z"/>
		<path style="fill:#010202;" d="M327.882,68.555c-0.332-0.046-0.664-0.07-0.974-0.07c-1.872,0-3.126,0.995-3.126,3.509v5.716
			h-2.233V66.303h2.182v1.99c0.833-1.753,2.252-2.179,3.417-2.179c0.305,0,0.618,0.046,0.734,0.07V68.555"/>
		<path style="fill:#010202;" d="M339.974,74.46c-0.637,2.015-2.463,3.606-5.124,3.606c-3.055,0-5.736-2.23-5.736-6.096
			c0-3.579,2.585-6.023,5.457-6.023c3.507,0,5.478,2.42,5.478,5.975c0,0.286-0.024,0.572-0.05,0.712h-8.586
			c0.051,2.039,1.521,3.463,3.437,3.463c1.852,0,2.782-1.019,3.209-2.3L339.974,74.46 M337.722,70.832
			c-0.046-1.637-1.114-2.916-3.127-2.916c-1.877,0-3.018,1.446-3.105,2.916H337.722z"/>
		<path style="fill:#010202;" d="M350.675,75.979c-0.547,1.09-1.758,2.039-3.541,2.039c-3.34,0-5.403-2.657-5.403-6.047
			c0-3.227,2.184-5.978,5.403-5.978c2.02,0,3.107,0.998,3.49,1.923v-7.375h2.209v15.058c0,1.092,0.094,1.92,0.114,2.112h-2.158
			c-0.044-0.262-0.114-0.855-0.114-1.543V75.979 M347.352,76.049c2.037,0,3.296-1.778,3.296-4.127c0-2.347-1.235-3.96-3.272-3.96
			c-2.041,0-3.366,1.662-3.366,4.009C344.01,74.32,345.218,76.049,347.352,76.049"/>
		<path style="fill:#010202;" d="M362.126,77.71V60.541h2.208v7.375c0.541-1.02,1.87-1.945,3.767-1.945
			c3.463,0,5.238,2.654,5.238,5.975c0,3.391-1.916,6.072-5.309,6.072c-1.685,0-2.991-0.734-3.696-1.969v1.661H362.126
			 M367.701,67.94c-1.974,0-3.393,1.54-3.393,4.006c0,2.468,1.419,4.078,3.393,4.078c2.037,0,3.366-1.61,3.366-4.078
			C371.067,69.48,369.762,67.94,367.701,67.94"/>
		<polygon style="fill:#010202;" points="376.376,82.477 379.222,76.454 374.312,66.303 376.872,66.303 380.43,74.177 
			383.848,66.303 386.241,66.303 378.82,82.477 		"/>
		<path style="fill:#010202;" d="M414.228,63.128v4.144c0,5.108-2.475,7.884-7.486,7.884h-2.366v11.983h-5.004V55.252h7.37
			C411.753,55.252,414.228,58.028,414.228,63.128 M404.376,59.803v10.795h2.366c1.606,0,2.463-0.727,2.463-3.008v-4.776
			c0-2.282-0.857-3.011-2.463-3.011H404.376z"/>
		<polygon style="fill:#010202;" points="416.086,55.252 421.102,55.252 421.102,82.581 429.339,82.581 429.339,87.139 
			416.086,87.139 		"/>
		<path style="fill:#010202;" d="M435.857,55.252v24.597c0,2.282,1,3.098,2.604,3.098c1.598,0,2.591-0.816,2.591-3.098V55.252h4.747
			v24.282c0,5.101-2.545,8.015-7.472,8.015c-4.926,0-7.474-2.914-7.474-8.015V55.252H435.857"/>
		<path style="fill:#010202;" d="M456.276,69.372h7.014v10.107c0,5.108-2.546,8.021-7.472,8.021c-4.914,0-7.486-2.913-7.486-8.021
			V62.903c0-5.11,2.572-8.017,7.486-8.017c4.926,0,7.472,2.907,7.472,8.017v3.103h-4.735v-3.423c0-2.276-1.012-3.143-2.604-3.143
			c-1.591,0-2.591,0.867-2.591,3.143v17.223c0,2.274,1,3.093,2.591,3.093c1.592,0,2.604-0.819,2.604-3.093v-5.885h-2.279V69.372"/>
		<path style="fill:#010202;" d="M478.845,83.508H474.9l-0.683-4.507h-4.778l-0.676,4.507h-3.57l3.965-24.83h5.708L478.845,83.508z
			 M469.941,75.632h3.756l-1.891-12.558L469.941,75.632z"/>
		<polygon style="fill:#010202;" points="483.772,65.523 483.772,83.508 480.258,83.508 480.258,58.679 485.152,58.679 
			489.175,73.54 489.175,58.679 492.631,58.679 492.631,83.508 488.635,83.508 		"/>
		<path style="fill:#010202;" d="M495.082,58.679h6.181c3.902,0,5.829,2.165,5.829,6.135v12.563c0,3.974-1.927,6.132-5.829,6.132
			h-6.181V58.679 M498.996,62.22v17.736h2.204c1.235,0,1.979-0.632,1.979-2.405V64.64c0-1.778-0.744-2.42-1.979-2.42H498.996z"/>
		<path style="fill:#010202;" d="M523.981,63.128v4.144c0,5.108-2.471,7.884-7.486,7.884h-2.369v11.983h-5.001V55.252h7.37
			C521.51,55.252,523.981,58.028,523.981,63.128 M514.126,59.803v10.795h2.369c1.591,0,2.47-0.727,2.47-3.008v-4.776
			c0-2.282-0.879-3.011-2.47-3.011H514.126z"/>
		<polygon style="fill:#010202;" points="525.839,55.252 530.855,55.252 530.855,82.581 539.092,82.581 539.092,87.139 
			525.839,87.139 		"/>
		<path style="fill:#010202;" d="M557.053,87.139h-5.059l-0.867-5.783h-6.147l-0.875,5.783h-4.601l5.093-31.887h7.339
			L557.053,87.139z M545.595,77.025h4.851l-2.424-16.128L545.595,77.025z"/>
		<polygon style="fill:#010202;" points="561.373,76.567 555.047,55.252 560.286,55.252 564.098,69.786 567.936,55.252 
			572.717,55.252 566.384,76.567 566.384,87.139 561.373,87.139 		"/>
		<path style="fill:#010202;" d="M98.486,0H10.051C9.705,0,9.415,0.262,9.383,0.605L0,95.986l0.17,0.516l0.499,0.22H15.3l0.506-0.23
			L98.99,1.114c0.174-0.198,0.215-0.479,0.106-0.722C98.987,0.155,98.75,0,98.486,0"/>
		<path style="fill:#010202;" d="M214.768,95.611L131.582,0.23L131.076,0h-14.631l-0.497,0.221l-0.172,0.516l9.38,95.38
			c0.034,0.344,0.323,0.606,0.669,0.606h88.434c0.267,0,0.509-0.155,0.618-0.393C214.986,96.091,214.94,95.81,214.768,95.611"/>
		<polygon style="fill:#010202;" points="251.736,15.195 251.736,44.06 247.161,44.06 247.161,15.195 236.868,15.195 
			236.868,10.947 262.029,10.947 262.029,15.195 		"/>
		<path style="fill:#010202;" d="M281.57,34.814h-14.672l-3.5,9.247h-4.902l13.171-33.113h5.274l13.171,33.113h-4.946L281.57,34.814
			z M268.535,30.563h11.398l-5.748-14.854L268.535,30.563z"/>
		<path style="fill:#010202;" d="M303.631,30.517h-4.953V44.06h-4.628V10.947h12.475c6.258,0,10.134,4.389,10.134,9.853
			c0,4.764-3.035,8.455-8.032,9.387l7.891,13.873h-5.326L303.631,30.517 M305.68,26.404c3.737,0,6.263-2.194,6.263-5.604
			c0-3.502-2.526-5.745-6.263-5.745h-7.002v11.349H305.68z"/>
		<polygon style="fill:#010202;" points="332.973,15.195 332.973,44.06 328.396,44.06 328.396,15.195 318.105,15.195 
			318.105,10.947 343.266,10.947 343.266,15.195 		"/>
		<path style="fill:#010202;" d="M347.129,32.757V10.948h4.531v21.669c0,5.044,2.757,7.893,7.378,7.893
			c4.672,0,7.331-2.849,7.331-7.893V10.948h4.577v21.809c0,7.801-5.18,12.003-11.908,12.003
			C352.309,44.76,347.129,40.558,347.129,32.757"/>
		<path style="fill:#010202;" d="M382.347,30.517V44.06h-4.578V10.947h12.049c6.118,0,10.231,4.248,10.231,9.807
			c0,5.604-4.113,9.763-10.231,9.763H382.347 M388.978,26.404c3.972,0,6.399-2.194,6.399-5.604c0-3.502-2.427-5.745-6.399-5.745
			h-6.631v11.349H388.978z"/>
		<path style="fill:#010202;" d="M422.655,36.494h-13.454l-2.756,7.566h-6.818l12.706-33.112h7.472l12.608,33.112h-7.002
			L422.655,36.494z M411.352,30.609h9.152l-4.575-12.517L411.352,30.609z"/>
		<path style="fill:#010202;" d="M434.75,32.338v-21.39h6.447v20.923c0,4.345,2.432,6.631,6.256,6.631
			c3.928,0,6.309-2.286,6.309-6.631V10.948h6.447v21.39c0,8.126-5.652,12.471-12.756,12.471
			C440.4,44.809,434.75,40.464,434.75,32.338"/>
		<polygon style="fill:#010202;" points="480.163,17.065 480.163,44.06 473.671,44.06 473.671,17.065 463.989,17.065 
			463.989,10.947 489.851,10.947 489.851,17.065 		"/>
		<path style="fill:#010202;" d="M508.219,10.245c9.014,0,17.053,6.586,17.053,17.281c0,10.649-8.039,17.234-17.053,17.234
			c-8.968,0-17-6.585-17-17.234C491.219,16.831,499.251,10.245,508.219,10.245 M508.219,38.502c5.137,0,10.371-3.55,10.371-11.022
			c0-7.474-5.234-11.022-10.371-11.022c-5.091,0-10.322,3.548-10.322,11.022C497.897,34.952,503.128,38.502,508.219,38.502"/>
		<path style="fill:#010202;" d="M542.361,10.947c6.45,0,10.09,3.783,10.09,8.92c0,3.408-2.049,6.164-4.805,7.099
			c3.219,0.794,5.837,3.737,5.837,7.847c0,5.369-4.018,9.247-10.23,9.247h-12.8V10.947H542.361 M541.383,24.629
			c2.945,0,4.715-1.635,4.715-4.156s-1.629-4.108-4.761-4.108h-4.531v8.264H541.383z M542.037,38.688
			c3.132,0,4.996-1.632,4.996-4.296c0-2.616-1.678-4.437-4.899-4.437h-5.328v8.733H542.037z"/>
		<path style="fill:#010202;" d="M578.235,36.494h-13.449l-2.756,7.566h-6.823l12.703-33.112h7.475L588,44.06h-7.009L578.235,36.494
			z M566.932,30.609h9.152l-4.577-12.517L566.932,30.609z"/>
		<polygon style="fill:#010202;" points="611.536,44.06 611.536,30.328 597.107,30.328 597.107,44.06 590.66,44.06 590.66,10.947 
			597.107,10.947 597.107,24.256 611.536,24.256 611.536,10.947 618.03,10.947 618.03,44.06 		"/>
		<polygon style="fill:#010202;" points="644.717,44.06 629.677,20.567 629.677,44.06 623.23,44.06 623.23,10.947 631.261,10.947 
			645.041,32.851 645.041,10.947 651.489,10.947 651.489,44.06 		"/>
		<path style="fill:#010202;" d="M226.824,25.658l-4.953-1.073c-2.8-0.608-4.246-2.429-4.246-4.812c0-3.083,2.662-5.51,6.399-5.51
			c4.384,0,6.416,2.938,6.932,5.272l4.129-1.305c-0.828-3.558-3.843-7.985-11.158-7.985c-6.115,0-10.927,4.672-10.927,9.855
			c0,4.95,3.366,8.033,8.082,9.06l4.717,1.027c3.316,0.702,4.951,2.759,4.951,5.139c0,2.895-2.245,5.278-6.823,5.278
			c-4.868,0-7.471-3.241-7.898-6.823l-4.393,1.386c0.714,4.645,4.5,9.593,12.342,9.593c7.053,0,11.444-4.67,11.444-9.809
			C235.422,30.328,232.336,26.872,226.824,25.658"/>
	</g>
</g>
</svg>
