<?xml version="1.0" encoding="UTF-8"?><svg id="Ebene_1" xmlns="http://www.w3.org/2000/svg" xmlns:xlink="http://www.w3.org/1999/xlink" viewBox="0 0 9.46 14.62"><defs><style>.cls-1{fill:none;}.cls-2{fill:#1d1d1b;}</style><clipPath id="clippath"><rect class="cls-1" x="-1741.55" y="-1594.86" width="428.03" height="306.14"/></clipPath><clipPath id="clippath-2"><rect class="cls-1" x="-1739.69" y="-1274.52" width="428.03" height="306.14"/></clipPath></defs><path class="cls-2" d="M5.4,14.62l3.77-10.29c.11-.21,.19-.43,.24-.65v-.03s0,0,0,0c.03-.14,.04-.28,.04-.42,0-1.78-2.12-3.22-4.73-3.22S0,1.44,0,3.22c0,.14,.02,.28,.04,.42h0v.03c.06,.23,.14,.44,.25,.65l3.77,10.29h1.34ZM2.38,4.81h0c-.01-.07-.02-.14-.02-.21,0-.89,1.06-1.61,2.36-1.61s2.36,.72,2.36,1.61c0,.07,0,.14-.02,.21h0v.02c-.03,.11-.07,.22-.13,.33l-2.22,8.96L2.51,5.15c-.06-.1-.1-.21-.12-.33v-.02Z"/></svg>